<svg xmlns="http://www.w3.org/2000/svg" width="65.671" height="52.457" viewBox="0 0 65.671 52.457">
  <path id="Icon_awesome-crown" data-name="Icon awesome-crown" d="M54.178,45.9H11.492a1.645,1.645,0,0,0-1.642,1.639v3.279a1.645,1.645,0,0,0,1.642,1.639H54.178a1.645,1.645,0,0,0,1.642-1.639V47.539A1.645,1.645,0,0,0,54.178,45.9Zm6.567-32.786a4.923,4.923,0,0,0-4.925,4.918,4.812,4.812,0,0,0,.451,2.029l-7.429,4.447a3.282,3.282,0,0,1-4.535-1.188L35.944,8.709a4.925,4.925,0,1,0-6.218,0l-8.363,14.61a3.284,3.284,0,0,1-4.535,1.188L9.409,20.061A4.925,4.925,0,1,0,4.925,22.95a5.037,5.037,0,0,0,.79-.082l7.419,19.753h39.4l7.419-19.753a5.037,5.037,0,0,0,.79.082,4.918,4.918,0,1,0,0-9.836Z" fill="#f5a623"/>
</svg>
