<?xml version="1.0" encoding="UTF-8"?>
<svg width="32px" height="32px" viewBox="0 0 32 32" version="1.1" xmlns="http://www.w3.org/2000/svg" xmlns:xlink="http://www.w3.org/1999/xlink">
    <title>UI / Icons / Home</title>
    <g id="Flash-Betting" stroke="none" stroke-width="1" fill="none" fill-rule="evenodd">
        <g id="Market" transform="translate(-167.000000, -335.000000)">
            <g id="Sidebar" transform="translate(-1.000000, 0.000000)">
                <g id="Sidebar_Menu" transform="translate(1.000000, 311.000000)">
                    <g id="Home_Button" transform="translate(148.000000, 0.000000)">
                        <g id="Icon_Play" transform="translate(19.000000, 24.000000)">
                            <rect id="Rectangle" fill="#FABDF2" x="0" y="0" width="32" height="32" rx="8"></rect>
                            <path d="M19.2719588,10 C19.5238546,10 19.7279614,10.2027625 19.7279614,10.4528644 L19.7279614,10.4528644 L19.7279614,13.5147709 L22.866414,16.6313835 C23.0444982,16.8082421 23.0444982,17.0949355 22.8665964,17.2717337 C22.777524,17.3601932 22.6607873,17.4043928 22.5441115,17.4043928 C22.4274356,17.4043928 22.310699,17.3601932 22.2216873,17.2717941 L22.2216873,17.2717941 L21.0834441,16.141505 L21.0834441,21.5471356 C21.0834441,21.7972375 20.8793374,22 20.6274416,22 L20.6274416,22 L11.372718,22 C11.1208222,22 10.9167155,21.7972375 10.9167155,21.5471356 L10.9167155,21.5471356 L10.9167155,16.1414446 L9.77853314,17.2717941 C9.60038814,17.4486527 9.31170814,17.4486527 9.13356314,17.2717941 C8.95547895,17.0949958 8.95547895,16.8082421 9.13356314,16.6313835 L9.13356314,16.6313835 L15.6773212,10.1326591 C15.8554054,9.95586082 16.1441462,9.95580044 16.3221696,10.1326591 L16.3221696,10.1326591 L18.8159563,12.6090422 L18.8159563,10.4528644 C18.8159563,10.2027625 19.020063,10 19.2719588,10 Z" id="House" fill="#9D59B8" fill-rule="nonzero"></path>
                        </g>
                    </g>
                </g>
            </g>
        </g>
    </g>
</svg>