<?xml version="1.0" encoding="UTF-8"?>
<svg width="24px" height="25px" viewBox="0 0 24 25" version="1.1" xmlns="http://www.w3.org/2000/svg" xmlns:xlink="http://www.w3.org/1999/xlink">
    <title>Market_Icon</title>
    <g id="Flash-Betting" stroke="none" stroke-width="1" fill="none" fill-rule="evenodd">
        <g id="Market" transform="translate(-139.000000, -579.000000)" fill="#55D6C4" fill-rule="nonzero">
            <g id="Sidebar" transform="translate(-1.000000, 0.000000)">
                <g id="Sidebar_Options" transform="translate(2.000000, 552.000000)">
                    <g id="Market-Button" transform="translate(122.000000, 0.000000)">
                        <g id="Market_Icon" transform="translate(16.000000, 27.000000)">
                            <path d="M10.6946295,6.3690908e-05 L10.6946295,0.00302756113 C10.6695601,0.00548565854 10.6446344,0.00933652296 10.6199584,0.0145637419 C10.5995257,0.017483268 10.5792251,0.0213323316 10.5591146,0.0260999228 C10.5121535,0.0403934252 10.4667392,0.0597236445 10.4235997,0.0837808268 C10.378827,0.104133388 10.3361938,0.129262215 10.2963811,0.158765928 C10.2781601,0.173251875 10.260624,0.188651568 10.2438349,0.204910652 C10.229186,0.222483958 10.2153424,0.240770025 10.2023505,0.259707547 C10.1708521,0.297066608 10.1430547,0.337649435 10.1193817,0.38083752 C10.1082724,0.401466694 10.0981203,0.422640763 10.0889605,0.44428644 C10.0764696,0.469554981 10.0653885,0.495554684 10.0557724,0.522155698 C10.0353962,0.592283323 10.0251434,0.665183285 10.0253512,0.738459125 C10.0239437,0.789672848 10.0276514,0.840900275 10.0364144,0.891313484 L10.3157405,2.24393065 C9.4573732,1.8957013 8.54953328,1.69520403 7.62203257,1.69307812 C3.41680846,1.69324543 -8.8817842e-16,5.33440268 -8.8817842e-16,9.78282429 C0.00210799092,11.3810472 0.446969973,12.9438973 1.28601054,14.2732832 C1.42433876,14.495328 1.66575435,14.6235484 1.91931837,14.6096451 C2.17288239,14.5957417 2.40007245,14.4418268 2.51530824,14.2058787 C2.63054404,13.9699306 2.6163185,13.6877953 2.47799027,13.4657506 C1.79201488,12.3789131 1.42602195,11.0947431 1.42429118,9.78282429 C1.42433833,6.11696595 4.19716738,3.17558892 7.62203257,3.17547729 C8.43514033,3.17730846 9.23276533,3.35782484 9.97833596,3.68595325 L8.34385782,4.57712333 C8.32192797,4.59034657 8.30069438,4.60478752 8.28024866,4.6203839 C8.26202752,4.63486983 8.24449137,4.65026952 8.2277021,4.66652862 C8.20954224,4.68007679 8.19200707,4.69451316 8.1751554,4.70978933 C8.15673213,4.72708322 8.13919242,4.74537403 8.12260869,4.76458623 C8.10765272,4.78590749 8.09380473,4.80805035 8.08112445,4.83091931 C8.06993383,4.85248972 8.0597807,4.87462813 8.0507028,4.89725224 C8.03865376,4.91782432 8.02757799,4.93899937 8.01751528,4.9607013 C8.01006972,4.98248395 8.00360953,5.00461933 7.99815609,5.02703423 C7.9931435,5.05276706 7.98945077,5.07876041 7.98709364,5.10490349 C7.98217642,5.12968438 7.97848406,5.15471249 7.97603118,5.17988874 C7.97507831,5.2019886 7.97507831,5.22412195 7.97603118,5.24622182 C7.97481336,5.27120072 7.97481336,5.29622802 7.97603118,5.32120692 C7.97838832,5.34735 7.98208105,5.37334334 7.98709364,5.39907617 C7.99353707,5.42056654 8.00091976,5.4417383 8.00921855,5.4625251 C8.01793252,5.48906303 8.02808953,5.51506159 8.0396402,5.54039435 C8.04871814,5.56301851 8.05887133,5.58515697 8.07006199,5.60672743 C8.08035004,5.62549079 8.09142316,5.64377403 8.10324936,5.66152433 C8.11959851,5.68369467 8.13714235,5.70487844 8.15579606,5.72497325 C8.16898575,5.74096568 8.18282653,5.75636137 8.19728031,5.77111797 C8.21654994,5.79057048 8.23686382,5.8088656 8.25812375,5.82591487 C8.31322125,5.86742948 8.37376415,5.90045419 8.43788863,5.92397233 C8.4614483,5.9329865 8.48545085,5.94068815 8.50979467,5.94704469 C8.5783555,5.96565761 8.6492068,5.97343502 8.71998135,5.97011705 C8.74412371,5.96755913 8.76812401,5.96370865 8.79188724,5.95858087 C8.81324747,5.95574608 8.83447259,5.95189669 8.8554964,5.94704469 C8.90235098,5.93367503 8.94776184,5.91531273 8.99101146,5.89224794 C8.99469894,5.89227798 8.99838658,5.89227798 9.00207406,5.89224794 L11.6653602,4.43003699 C11.7067747,4.40535041 11.7456908,4.37636267 11.7815157,4.34351556 C11.7918507,4.33610709 11.8019952,4.32841358 11.8119383,4.32044319 C11.8231736,4.31402806 11.8342399,4.30729619 11.845125,4.30025499 C11.8451538,4.2964096 11.8451538,4.29256404 11.845125,4.28871866 C11.8595788,4.27396207 11.8734196,4.25856637 11.8866094,4.24257394 C11.8903377,4.2387712 11.8940257,4.23492562 11.8976725,4.2310379 C11.9083121,4.21700669 11.9184592,4.20257693 11.9280937,4.18777719 C11.9318221,4.1839744 11.93551,4.18012877 11.9391569,4.17624101 C11.9420452,4.16859888 11.944811,4.16090702 11.9474532,4.15316865 C11.9550963,4.14279999 11.9624739,4.13222142 11.9695781,4.12144411 C11.9696069,4.11759878 11.9696069,4.11375327 11.9695781,4.10990793 C11.9805358,4.09116214 11.9906863,4.07191605 12,4.05222703 C12.0000156,4.04934299 12.0000156,4.04645889 12,4.04357486 C12.008147,4.02468008 12.0155285,4.00543608 12.0221243,3.98589395 C12.0222125,3.97916481 12.0222125,3.97243473 12.0221243,3.9657056 C12.029338,3.94676552 12.0357967,3.92752212 12.0414838,3.90802484 C12.0415126,3.90417946 12.0415126,3.9003339 12.0414838,3.89648851 C12.0458346,3.87837538 12.0495249,3.86009665 12.0525469,3.84169176 C12.0526621,3.83400145 12.0526621,3.82630972 12.0525469,3.8186194 C12.0568973,3.8005062 12.0605872,3.78222743 12.0636087,3.76382251 C12.0650167,3.71260884 12.0613095,3.66138141 12.0525469,3.61096815 C12.0489,3.60708039 12.0452121,3.60323476 12.0414838,3.59943197 L12.0221243,3.51002653 C12.0168891,3.45506613 12.0057573,3.40089176 11.9889376,3.34852 L11.4247516,0.568300421 C11.4192166,0.546857924 11.4127569,0.525686716 11.4053921,0.504851353 C11.3835826,0.434963989 11.3518897,0.368863752 11.3113616,0.308736427 C11.2419877,0.206227784 11.1487099,0.123844096 11.0403318,0.0693606377 C11.0194916,0.060622071 10.9982645,0.0529225769 10.9767225,0.0462882761 C10.9291788,0.0293621798 10.8800427,0.0177606667 10.8301444,0.0116797337 C10.7854322,0.00331004159 10.7400514,-0.000553158086 10.6946295,6.3690908e-05 L10.6946295,6.3690908e-05 Z M17.1744636,1.5517598 C14.3251401,1.5517598 12.0525469,3.9925348 12.0525469,6.93627223 C12.0525469,9.88006489 14.3251401,12.3207841 17.1744636,12.3207841 C19.9903215,12.3207841 22.2963817,9.88804608 22.2963817,6.93627223 C22.2963817,3.98449824 19.9903215,1.5517598 17.1744636,1.5517598 Z M17.1634018,1.91226541 C17.261609,1.90822046 17.3570091,1.94693024 17.4267679,2.01912951 C17.4965266,2.09132877 17.5343655,2.19051925 17.5312276,2.29295953 L17.5312276,3.54751908 C17.5322307,3.68061551 17.4647156,3.8040517 17.3543481,3.87090369 C17.2439806,3.93775568 17.107712,3.93775568 16.9973445,3.87090369 C16.886977,3.8040517 16.819462,3.68061551 16.820465,3.54751908 L16.820465,2.29295953 C16.8174942,2.19504219 16.8519643,2.09990819 16.9162851,2.02850567 C16.9806059,1.95710315 17.0695031,1.91528716 17.1634018,1.91226541 Z M17.1689327,4.38389226 C17.2647269,4.3815575 17.3573376,4.41981477 17.4256119,4.4899259 C17.4938862,4.56003703 17.5319927,4.65601363 17.5312276,4.75593406 L17.5312276,6.73150499 L19.0661444,8.34368629 C19.1857776,8.49311976 19.1739375,8.71365895 19.0390567,8.84823295 C18.9041759,8.98280694 18.6923763,8.98539867 18.5545045,8.85416226 L16.9532145,7.16122783 C16.9434952,7.15215099 16.9342626,7.14252291 16.9255587,7.13238731 C16.9178613,7.1250403 16.9104791,7.11734199 16.9034338,7.10931494 C16.8976174,7.10185159 16.8920819,7.09415498 16.8868397,7.08624258 C16.8849758,7.08434116 16.883132,7.08241832 16.8813089,7.08047442 C16.8764301,7.07296273 16.8718174,7.06526676 16.8674802,7.05740206 C16.8655978,7.05454527 16.863754,7.05166097 16.8619494,7.04875003 C16.8579454,7.04024849 16.8542555,7.03159001 16.8508876,7.02279366 C16.8499493,7.02087938 16.8490269,7.01895658 16.8481208,7.0170255 C16.8440487,7.00757742 16.8403582,6.99795546 16.837059,6.98818497 C16.8361211,6.98627073 16.8351993,6.98434799 16.8342936,6.98241696 C16.8333378,6.97954484 16.8324159,6.97666056 16.8315281,6.97376478 C16.815587,6.91962935 16.8118017,6.8623953 16.820465,6.80649023 L16.820465,4.75593406 C16.8192387,4.56782517 16.953835,4.40883315 17.1329792,4.38677627 C17.144909,4.38517868 17.156909,4.38421609 17.1689327,4.38389226 Z M12.7135275,6.56711445 C12.7162933,6.56708083 12.7190594,6.56708083 12.7218252,6.56711445 C12.7356414,6.56626886 12.7494933,6.56626886 12.7633096,6.56711445 L13.9552894,6.56711445 C14.1508852,6.56810843 14.3089432,6.73374012 14.3089432,6.93771424 C14.3089432,7.14168835 14.1508852,7.30732005 13.9552894,7.30831403 L12.7633096,7.30831403 C12.5670379,7.32264965 12.3967841,7.1683478 12.3830371,6.9636712 C12.3692902,6.75899459 12.5172557,6.58145009 12.7135275,6.56711445 L12.7135275,6.56711445 Z M20.3576856,6.56711445 C20.3595292,6.5670995 20.3613729,6.5670995 20.3632165,6.56711445 C20.3733527,6.56665987 20.383503,6.56665987 20.3936392,6.56711445 L21.5441346,6.56711445 C21.7397304,6.56810843 21.8977884,6.73374012 21.8977884,6.93771424 C21.8977884,7.14168835 21.7397304,7.30732005 21.5441346,7.30831403 L20.3936392,7.30831403 C20.1973674,7.31866747 20.0302093,7.16113742 20.020281,6.95646081 C20.0103527,6.7517842 20.1614139,6.57746789 20.3576856,6.56711445 Z M17.1634018,9.94433083 C17.2621069,9.94023642 17.3579637,9.97933269 17.4278138,10.0521742 C17.4976639,10.1250157 17.5351543,10.2249775 17.5312276,10.3279094 L17.5312276,11.5795846 C17.5322307,11.7126811 17.4647156,11.8361173 17.3543481,11.9029693 C17.2439806,11.9698212 17.107712,11.9698212 16.9973445,11.9029693 C16.886977,11.8361173 16.819462,11.7126811 16.820465,11.5795846 L16.820465,10.3279094 C16.8167415,10.2295022 16.850875,10.1336224 16.9152759,10.0615894 C16.9796768,9.98955631 17.0690064,9.94734121 17.1634018,9.94433083 Z M22.2189438,10.3797926 C22.1958658,10.3796075 22.1727915,10.3805699 22.1498036,10.3827057 C21.9017516,10.4027858 21.6820061,10.5571556 21.5709667,10.7893349 C21.4599273,11.0215142 21.4738886,11.2974315 21.6077425,11.5161353 C22.2457585,12.5785847 22.5894614,13.817899 22.5895364,15.0808159 C22.5894911,18.7466753 19.8166526,21.6852229 16.3917953,21.685279 C15.6071163,21.6832442 14.8343855,21.5157293 14.1101638,21.2094125 L15.5344546,20.4278361 C15.5783872,20.4063933 15.6200906,20.3802995 15.6589078,20.3499659 C15.7665563,20.2528956 15.8436575,20.1242509 15.8801569,19.9808081 C15.9008065,19.9097563 15.9110622,19.8358631 15.9105781,19.7616214 C15.908125,19.7364453 15.9044324,19.7114174 15.8995149,19.6866366 C15.8715276,19.4355514 15.7223201,19.2168445 15.5040334,19.1069437 C15.3957326,19.055871 15.2768454,19.0340507 15.1583311,19.0434944 L15.1583311,19.0377252 C15.0640976,19.0436294 14.9719477,19.0691247 14.8873012,19.1127115 L12.1991236,20.5835749 C12.1848852,20.5945656 12.1710473,20.6061096 12.1576392,20.6181827 C12.153952,20.6181526 12.1502646,20.6181526 12.1465774,20.6181827 C12.1255903,20.6314927 12.1052816,20.6459325 12.0857336,20.6614435 C12.0712797,20.6762001 12.0574389,20.6915958 12.0442492,20.7075883 C12.0405213,20.7113908 12.0368338,20.7152362 12.0331874,20.7191237 C12.0187921,20.7329401 12.0049521,20.7473728 11.9917031,20.7623846 C11.9916742,20.7662302 11.9916742,20.7700759 11.9917031,20.7739215 C11.9772492,20.7886781 11.9634084,20.8040738 11.9502187,20.8200662 C11.9502025,20.82295 11.9502025,20.825834 11.9502187,20.8287178 C11.9383214,20.8474093 11.9272473,20.8666564 11.9170306,20.8863994 C11.9101325,20.9005979 11.9036764,20.9150252 11.8976725,20.9296588 C11.8938562,20.9372823 11.890168,20.9449748 11.8866094,20.9527327 C11.8865806,20.9565778 11.8865806,20.960423 11.8866094,20.9642681 C11.8751542,20.9886606 11.8649984,21.0136935 11.8561881,21.0392529 C11.8412038,21.082306 11.8300932,21.1267195 11.8230001,21.1719194 C11.8221283,21.1930594 11.8221283,21.2142287 11.8230001,21.2353687 C11.8215926,21.2865822 11.8253002,21.3378093 11.8340632,21.3882222 C11.8340344,21.3920678 11.8340344,21.3959135 11.8340632,21.3997591 L12.4618571,24.4308901 C12.4673921,24.4523327 12.4738518,24.473504 12.4812166,24.4943394 C12.4872161,24.5206993 12.4946022,24.5466948 12.5033415,24.5722081 C12.5124192,24.5948323 12.5225722,24.6169708 12.5337627,24.6385413 C12.5575913,24.6807276 12.5853843,24.7203378 12.6167315,24.756787 C12.6664791,24.8085376 12.7233364,24.8522777 12.7854345,24.8865696 C12.805814,24.9031504 12.8270489,24.918555 12.8490438,24.9327143 C12.9342876,24.9733109 13.0264112,24.9958577 13.1200736,24.9990475 C13.1440267,25.0003175 13.1680262,25.0003175 13.1919792,24.9990475 C13.2133395,24.9962125 13.2345647,24.9923629 13.2555885,24.9875106 C13.2797308,24.9849529 13.303731,24.9811027 13.3274941,24.9759752 C13.3754039,24.9618706 13.4217537,24.9425365 13.4657745,24.9182935 C13.4865315,24.9087415 13.5068362,24.8981547 13.5266184,24.8865696 C13.6475019,24.8081694 13.7429176,24.6935923 13.8004151,24.5577888 C13.8077793,24.5369533 13.8142386,24.515782 13.8197731,24.4943394 C13.8285129,24.4688262 13.8358995,24.4428306 13.8418994,24.4164708 C13.8527137,24.3701273 13.8591967,24.3228002 13.8612575,24.2751527 C13.8588049,24.2499762 13.8551128,24.2249477 13.8501958,24.2001665 C13.8491727,24.1702166 13.8464022,24.1403595 13.8418994,24.1107609 L13.5183221,22.5504933 C14.4239525,22.946325 15.3935348,23.1651219 16.3807322,23.1676794 C16.3844198,23.1677094 16.3881077,23.1677094 16.3917953,23.1676794 C20.5970128,23.1675672 24,19.5292381 24,15.0808159 C24,13.5418635 23.5880971,12.0307575 22.8080201,10.731675 C22.6818897,10.5174766 22.459932,10.3849021 22.2189438,10.3797926 Z M6.28347533,13.3561565 C3.33683097,13.3561565 0.93201193,15.8668429 0.93201193,18.939668 C0.93201193,22.0124931 3.33683097,24.5087602 6.28347533,24.5087602 C9.23011883,24.5087602 11.634939,22.0124931 11.634939,18.939668 C11.634939,15.8668429 9.23011883,13.3561565 6.28347533,13.3561565 Z M6.12583535,15.2567432 L6.47983396,15.2567432 L6.47983396,16.2805787 C6.68091141,16.2842998 6.88553874,16.3159425 7.09656581,16.3728681 C7.30760123,16.4286774 7.48422148,16.4928031 7.62756373,16.5660986 L7.62756373,17.3101834 L7.58607962,17.3101834 C7.43676442,17.1937259 7.2819454,17.0930256 7.11869072,17.0044735 C6.9574377,16.9133181 6.74461728,16.8541273 6.47983396,16.8314315 L6.47983396,18.4695692 C6.53958482,18.480731 6.60377865,18.4983207 6.67342688,18.5243655 C6.74313572,18.5429696 6.80422328,18.5585126 6.85595749,18.5733941 C7.15260351,18.6545054 7.38057267,18.7943867 7.54182979,18.9915804 C7.70406084,19.1879325 7.78697001,19.4576968 7.78796942,19.7962292 L7.78796942,19.7991146 L7.78796942,19.8019984 C7.7867266,20.1915884 7.66531584,20.5174882 7.42567393,20.7768054 C7.18478269,21.0350179 6.87004069,21.1873723 6.47983396,21.2353687 L6.47983396,22.6110574 L6.12583535,22.6110574 L6.12583535,21.2555572 C5.86304435,21.2530632 5.61559309,21.2211429 5.38465062,21.1603824 C5.15371737,21.0971324 4.95374355,21.016721 4.78451239,20.9181234 L4.78451239,20.165387 L4.83429352,20.165387 C4.87217349,20.2025937 4.93868077,20.2545268 5.03618331,20.3211258 C5.13371432,20.3869821 5.2294439,20.4427294 5.3210416,20.4855162 C5.4245702,20.5335127 5.54320887,20.5779076 5.68057137,20.6210665 C5.81993921,20.6616222 5.96856383,20.6857267 6.12583535,20.6931675 L6.12583535,19.0492621 C6.04616839,19.0306595 5.97224343,19.0109302 5.90458622,18.9915804 C5.83692873,18.9729778 5.7742918,18.952968 5.71652432,18.9310164 C5.39201323,18.8272107 5.16093795,18.6714129 5.0195897,18.4638015 C4.87825221,18.2535838 4.8066373,17.9969749 4.8066373,17.6908766 C4.8066373,17.3163188 4.92140564,17.0002016 5.15233918,16.7420259 C5.38526332,16.4838133 5.70974638,16.3320186 6.12583535,16.2892303 L6.12583535,15.2567432 Z M6.12583535,16.8371992 C5.91281612,16.8558033 5.73463687,16.9286765 5.58930614,17.0592713 C5.44396578,17.1857728 5.37082259,17.3651155 5.37082259,17.5928194 C5.37082259,17.8231267 5.42371791,17.9954909 5.53122828,18.1119468 C5.63873851,18.2284043 5.83716421,18.3247309 6.12583535,18.403236 L6.12583535,16.8371992 Z M6.47983396,19.1155953 L6.47983396,20.6873998 C6.71874494,20.6576353 6.90002012,20.5784332 7.02742549,20.4537923 C7.15683535,20.329522 7.22378413,20.1449667 7.22378413,19.8971717 C7.22378413,19.6594223 7.16424227,19.4841743 7.04678483,19.375159 C6.93130737,19.2639126 6.74262285,19.1788468 6.47983396,19.1155953 Z" id="path1006"></path>
                        </g>
                    </g>
                </g>
            </g>
        </g>
    </g>
</svg>