<?xml version="1.0" encoding="UTF-8"?>
<svg width="24px" height="23px" viewBox="0 0 24 23" version="1.1" xmlns="http://www.w3.org/2000/svg" xmlns:xlink="http://www.w3.org/1999/xlink">
    <title>Menu_Icon</title>
    <g id="Flash-Betting" stroke="none" stroke-width="1" fill="none" fill-rule="evenodd" opacity="0.799316406">
        <g id="Market" transform="translate(-28.000000, -579.000000)" fill="#1984F5" fill-rule="nonzero">
            <g id="Sidebar" transform="translate(-1.000000, 0.000000)">
                <g id="Sidebar_Options" transform="translate(2.000000, 552.000000)">
                    <g id="Menu_Icon" transform="translate(27.000000, 27.000000)">
                        <path d="M20.4,12.5714286 L16.8,12.5714286 C14.8116,12.5714286 13.2,14.1062857 13.2,16 L13.2,19.4285714 C13.2,21.3222857 14.8116,22.8571429 16.8,22.8571429 L20.4,22.8571429 C22.3884,22.8571429 24,21.3222857 24,19.4285714 L24,16 C24,14.1062857 22.3884,12.5714286 20.4,12.5714286 M7.2,12.5714286 L3.6,12.5714286 C1.6116,12.5714286 0,14.1062857 0,16 L0,19.4285714 C0,21.3222857 1.6116,22.8571429 3.6,22.8571429 L7.2,22.8571429 C9.1884,22.8571429 10.8,21.3222857 10.8,19.4285714 L10.8,16 C10.8,14.1062857 9.1884,12.5714286 7.2,12.5714286 M20.4,0 L16.8,0 C14.8116,0 13.2,1.53485714 13.2,3.42857143 L13.2,6.85714286 C13.2,8.75085714 14.8116,10.2857143 16.8,10.2857143 L20.4,10.2857143 C22.3884,10.2857143 24,8.75085714 24,6.85714286 L24,3.42857143 C24,1.53485714 22.3884,0 20.4,0 M10.8,3.42857143 L10.8,6.85714286 C10.8,8.75085714 9.1884,10.2857143 7.2,10.2857143 L3.6,10.2857143 C1.6116,10.2857143 0,8.75085714 0,6.85714286 L0,3.42857143 C0,1.53485714 1.6116,0 3.6,0 L7.2,0 C9.1884,0 10.8,1.53485714 10.8,3.42857143" id="menu_navigation_grid-[#1529]"></path>
                    </g>
                </g>
            </g>
        </g>
    </g>
</svg>