<?xml version="1.0" encoding="UTF-8"?>
<svg xmlns="http://www.w3.org/2000/svg" xmlns:xlink="http://www.w3.org/1999/xlink" width="32pt" height="32pt" viewBox="0 0 32 32" version="1.1">
<g id="surface1">
<path style=" stroke:none;fill-rule:nonzero;fill:rgb(83.137255%,88.235294%,95.686275%);fill-opacity:1;" d="M 26.878906 29.601562 L 9.933594 29.601562 C 8.433594 29.601562 7.21875 28.386719 7.21875 26.886719 L 7.21875 4.097656 C 7.21875 3.714844 7.300781 3.335938 7.457031 2.988281 C 5.988281 3.027344 4.820312 4.230469 4.820312 5.699219 L 4.820312 28.488281 C 4.820312 29.984375 6.035156 31.199219 7.53125 31.199219 L 24.480469 31.199219 C 25.546875 31.199219 26.515625 30.574219 26.953125 29.597656 C 26.929688 29.601562 26.90625 29.601562 26.878906 29.601562 Z M 26.878906 29.601562 "/>
<path style=" stroke:none;fill-rule:nonzero;fill:rgb(10.196078%,89.803922%,74.509804%);fill-opacity:1;" d="M 14.714844 21.832031 C 14.503906 21.832031 14.304688 21.75 14.15625 21.605469 L 10.929688 18.457031 C 10.71875 18.261719 10.628906 17.964844 10.695312 17.683594 C 10.761719 17.402344 10.976562 17.179688 11.253906 17.101562 C 11.535156 17.019531 11.832031 17.097656 12.039062 17.300781 L 12.046875 17.3125 L 14.714844 19.914062 L 19.964844 14.789062 C 20.28125 14.484375 20.785156 14.488281 21.09375 14.804688 C 21.402344 15.121094 21.394531 15.625 21.082031 15.933594 L 15.273438 21.605469 C 15.125 21.75 14.921875 21.832031 14.714844 21.832031 Z M 14.714844 21.832031 "/>
<path style=" stroke:none;fill-rule:nonzero;fill:rgb(2.352941%,20.784314%,78.823529%);fill-opacity:1;" d="M 24.480469 2.171875 L 19.339844 2.171875 C 18.757812 0.851562 17.449219 0 16.007812 0 C 14.5625 0 13.257812 0.851562 12.675781 2.171875 L 7.53125 2.171875 C 5.589844 2.179688 4.015625 3.753906 4.011719 5.699219 L 4.011719 28.488281 C 4.019531 30.429688 5.59375 32 7.53125 32 L 24.480469 32 C 26.421875 32 27.996094 30.429688 28 28.488281 L 28 5.699219 C 27.996094 3.753906 26.421875 2.179688 24.480469 2.171875 Z M 13.253906 3.769531 C 13.625 3.773438 13.953125 3.515625 14.035156 3.148438 C 14.230469 2.253906 15.058594 1.609375 16.007812 1.609375 C 16.953125 1.609375 17.78125 2.253906 17.980469 3.148438 C 18.058594 3.515625 18.386719 3.773438 18.761719 3.773438 L 20.324219 3.773438 L 20.324219 4.484375 C 20.335938 5.539062 19.488281 6.402344 18.4375 6.410156 L 13.578125 6.410156 C 12.527344 6.402344 11.679688 5.542969 11.6875 4.488281 L 11.6875 3.769531 Z M 26.402344 28.488281 C 26.398438 29.546875 25.539062 30.398438 24.480469 30.402344 L 7.53125 30.402344 C 6.476562 30.398438 5.617188 29.546875 5.609375 28.488281 L 5.609375 5.699219 C 5.613281 4.636719 6.472656 3.777344 7.53125 3.769531 L 10.089844 3.769531 L 10.089844 4.484375 C 10.078125 6.421875 11.644531 8 13.578125 8.007812 L 18.433594 8.007812 C 20.371094 8 21.933594 6.421875 21.925781 4.484375 L 21.925781 3.769531 L 24.480469 3.769531 C 25.539062 3.777344 26.398438 4.636719 26.402344 5.699219 Z M 26.402344 28.488281 "/>
</g>
</svg>
