<?xml version="1.0" encoding="UTF-8"?>
<svg width="16px" height="16px" viewBox="0 0 16 16" version="1.1" xmlns="http://www.w3.org/2000/svg" xmlns:xlink="http://www.w3.org/1999/xlink">
    <title>Refresh_Icon</title>
    <g id="Flash-Betting" stroke="none" stroke-width="1" fill="none" fill-rule="evenodd">
        <g id="Market" transform="translate(-312.000000, -656.000000)" fill="#C7C2C2" fill-rule="nonzero">
            <g id="Sidebar" transform="translate(-1.000000, 0.000000)">
                <g id="Sidebar_Options" transform="translate(2.000000, 552.000000)">
                    <g id="Ladders_Section" transform="translate(18.000000, 89.000000)">
                        <g id="Ladders_Top" transform="translate(5.000000, 0.000000)">
                            <g id="Refresh_Icon" transform="translate(288.000000, 15.000000)">
                                <path d="M13.65,2.35 C12.02,0.72 9.71,-0.22 7.17,0.04 C3.5,0.41 0.48,3.39 0.07,7.06 C-0.48,11.91 3.27,16 8,16 C11.19,16 13.93,14.13 15.21,11.44 C15.53,10.77 15.05,10 14.31,10 C13.94,10 13.59,10.2 13.43,10.53 C12.3,12.96 9.59,14.5 6.63,13.84 C4.41,13.35 2.62,11.54 2.15,9.32 C1.31,5.44 4.26,2 8,2 C9.66,2 11.14,2.69 12.22,3.78 L10.71,5.29 C10.08,5.92 10.52,7 11.41,7 L15,7 C15.55,7 16,6.55 16,6 L16,2.41 C16,1.52 14.92,1.07 14.29,1.7 L13.65,2.35 Z"></path>
                            </g>
                        </g>
                    </g>
                </g>
            </g>
        </g>
    </g>
</svg>