<?xml version="1.0" encoding="UTF-8"?>
<svg width="24px" height="24px" viewBox="0 0 24 24" version="1.1" xmlns="http://www.w3.org/2000/svg" xmlns:xlink="http://www.w3.org/1999/xlink">
    <title>XMLID_273_</title>
    <g id="Flash-Betting" stroke="none" stroke-width="1" fill="none" fill-rule="evenodd">
        <g id="Market" transform="translate(-251.000000, -580.000000)" fill="#F5C854" fill-rule="nonzero">
            <g id="Sidebar" transform="translate(-1.000000, 0.000000)">
                <g id="Sidebar_Options" transform="translate(2.000000, 552.000000)">
                    <g id="Settings_Icon" transform="translate(250.000000, 28.000000)">
                        <path d="M21.8794286,13.7451429 L21.4285714,13.4845714 C20.892,13.1751429 20.5714286,12.6197143 20.5714286,12 C20.5714286,11.3802857 20.892,10.8248571 21.4285714,10.5154286 L21.8794286,10.2548571 C23.1102857,9.54342857 23.5311429,7.97314286 22.8205714,6.74228571 L21.9634286,5.25771429 C21.2545714,4.02942857 19.6782857,3.60771429 18.4508571,4.31657143 L18,4.57628571 C17.4634286,4.88657143 16.8214286,4.88657143 16.2857143,4.57628571 C15.7491429,4.266 15.4285714,3.71142857 15.4285714,3.09171429 L15.4285714,2.57142857 C15.4285714,1.15371429 14.2748571,0 12.8571429,0 L11.1428571,0 C9.72514286,0 8.57142857,1.15371429 8.57142857,2.57142857 L8.57142857,3.09257143 C8.57142857,3.71228571 8.25085714,4.26685714 7.71428571,4.57714286 C7.17771429,4.88657143 6.53657143,4.88742857 6,4.57714286 L5.54914286,4.31657143 C4.32171429,3.60771429 2.74542857,4.02942857 2.03571429,5.25771429 L1.17857143,6.74228571 C0.468,7.97314286 0.888857143,9.54428571 2.11971429,10.2548571 L2.57142857,10.5154286 C3.108,10.8248571 3.42857143,11.3802857 3.42857143,12 C3.42857143,12.6197143 3.108,13.1751429 2.57142857,13.4845714 L2.12057143,13.7451429 C0.889714286,14.4557143 0.468857143,16.0268571 1.17942857,17.2577143 L2.03657143,18.7422857 C2.74628571,19.9705714 4.32257143,20.3922857 5.54914286,19.6834286 L6,19.4237143 C6.53657143,19.1125714 7.17771429,19.1142857 7.71428571,19.4237143 C8.25085714,19.734 8.57142857,20.2885714 8.57142857,20.9082857 L8.57142857,21.4285714 C8.57142857,22.8462857 9.72514286,24 11.1428571,24 L12.8571429,24 C14.2748571,24 15.4285714,22.8462857 15.4285714,21.4285714 L15.4285714,20.9074286 C15.4285714,20.2877143 15.7491429,19.7331429 16.2857143,19.4228571 C16.8214286,19.1134286 17.4634286,19.1125714 18,19.4228571 L18.4508571,19.6834286 C19.6782857,20.3914286 21.2545714,19.9697143 21.9634286,18.7422857 L22.8205714,17.2577143 C23.5311429,16.0268571 23.1102857,14.4557143 21.8794286,13.7451429 Z M12,16.2857143 C9.63685714,16.2857143 7.71428571,14.3631429 7.71428571,12 C7.71428571,9.63685714 9.63685714,7.71428571 12,7.71428571 C14.3631429,7.71428571 16.2857143,9.63685714 16.2857143,12 C16.2857143,14.3631429 14.3631429,16.2857143 12,16.2857143 Z" id="XMLID_273_"></path>
                    </g>
                </g>
            </g>
        </g>
    </g>
</svg>