<?xml version="1.0" encoding="UTF-8"?>
<svg width="52px" height="52px" viewBox="0 0 52 52" version="1.1" xmlns="http://www.w3.org/2000/svg" xmlns:xlink="http://www.w3.org/1999/xlink">
    <title>UI / Icons / SignOut</title>
    <defs>
        <filter x="-71.9%" y="-71.9%" width="243.8%" height="243.8%" filterUnits="objectBoundingBox" id="filter-1">
            <feOffset dx="0" dy="2" in="SourceAlpha" result="shadowOffsetOuter1"></feOffset>
            <feGaussianBlur stdDeviation="5" in="shadowOffsetOuter1" result="shadowBlurOuter1"></feGaussianBlur>
            <feColorMatrix values="0 0 0 0 0.176602129   0 0 0 0 0.172055835   0 0 0 0 0.172055835  0 0 0 0.5 0" type="matrix" in="shadowBlurOuter1" result="shadowMatrixOuter1"></feColorMatrix>
            <feMerge>
                <feMergeNode in="shadowMatrixOuter1"></feMergeNode>
                <feMergeNode in="SourceGraphic"></feMergeNode>
            </feMerge>
        </filter>
    </defs>
    <g id="Flash-Betting" stroke="none" stroke-width="1" fill="none" fill-rule="evenodd">
        <g id="Market" transform="translate(-293.000000, -38.000000)">
            <g id="Sidebar" transform="translate(-1.000000, 0.000000)">
                <g id="UI-/-Icons-/-SignOut" transform="translate(304.000000, 46.000000)" filter="url(#filter-1)">
                    <g id="Logout_Icon">
                        <circle id="Oval" fill="#F9B5C6" cx="16" cy="16" r="16"></circle>
                        <path d="M17.1365517,21.0634483 C17.2689655,21.1958621 17.4344828,21.262069 17.6165517,21.262069 C17.7986207,21.262069 17.9641379,21.1958621 18.0965517,21.0634483 L22.5655172,16.5944828 C22.5986207,16.5613793 22.6317241,16.5282759 22.6482759,16.4951724 C22.6482759,16.4951724 22.6648276,16.4786207 22.6648276,16.462069 C22.6813793,16.4289655 22.697931,16.3958621 22.7144828,16.3793103 C22.7144828,16.3627586 22.7144828,16.3462069 22.7310345,16.3462069 C22.7475862,16.3131034 22.7475862,16.2965517 22.7641379,16.2634483 C22.7806897,16.2137931 22.7806897,16.1806897 22.7806897,16.1310345 C22.7806897,16.0813793 22.7806897,16.0482759 22.7641379,15.9986207 C22.7641379,15.9655172 22.7475862,15.9324138 22.7310345,15.9158621 C22.7310345,15.8993103 22.7310345,15.8827586 22.7144828,15.8827586 C22.697931,15.8496552 22.6813793,15.8165517 22.6648276,15.7834483 C22.6648276,15.7834483 22.6648276,15.7668966 22.6482759,15.7668966 C22.6317241,15.7337931 22.5986207,15.7006897 22.5655172,15.6675862 L18.0965517,11.1986207 C17.8317241,10.9337931 17.4013793,10.9337931 17.1365517,11.1986207 C16.8717241,11.4634483 16.8717241,11.8937931 17.1365517,12.1586207 L20.4468966,15.4689655 L8.67862069,15.4689655 C8.29793103,15.4689655 8,15.7668966 8,16.1475862 C8,16.5282759 8.29793103,16.8262069 8.67862069,16.8262069 L20.4468966,16.8262069 L17.1365517,20.1365517 C16.8717241,20.3682759 16.8717241,20.7986207 17.1365517,21.0634483 L17.1365517,21.0634483 Z" id="Path" fill="#E96D8B" fill-rule="nonzero"></path>
                    </g>
                </g>
            </g>
        </g>
    </g>
</svg>